The story of King George VI of Britain, his impromptu ascension to the throne and the speech therapist who helped the unsure monarch become worthy of it.
 
http://www.imdb.com/title/tt1504320/

Subtitles: Dutch, English.


Nadat zijn broer aftreedt wordt George nogal ongewild de nieuwe Koning van Engeland en gaat door het leven als George VI. Helaas stottert hij, wat niet echt Koninklijk overkomt. Hiervoor schakelt hij de hulp in van de onorthodoxe spraaktherapeut Lionel Logue wat resulteert in een reeks ongewone technieken en een bijzondere vriendschap...
 
http://www.moviemeter.nl/film/66831

Ondertitels: Engels, Nederlands.

General
Complete name                    : The Kings Speech-AC3-XviD-BRRip 2010.avi
Format                           : AVI
Format/Info                      : Audio Video Interleave
File size                        : 1.38 GiB
Duration                         : 1h 58mn
Overall bit rate                 : 1 662 Kbps
Writing application              : VirtualDubMod 1.5.4.1 (build 2178/release)
Writing library                  : VirtualDubMod build 2178/release
Source                           : The.Kings.Speech.2010.720p.BluRay.X264-AMIABLE

Video
ID                               : 0
Format                           : MPEG-4 Visual
Format profile                   : Simple@L3
Format settings, BVOP            : No
Format settings, QPel            : No
Format settings, GMC             : No warppoints
Format settings, Matrix          : Default (H.263)
Codec ID                         : XVID
Codec ID/Hint                    : XviD
Duration                         : 1h 58mn
Bit rate                         : 1 205 Kbps
Width                            : 720 pixels
Height                           : 400 pixels
Display aspect ratio             : 16:9
Frame rate                       : 23.976 fps
Resolution                       : 8 bits
Colorimetry                      : 4:2:0
Scan type                        : Progressive
Bits/(Pixel*Frame)               : 0.174
Stream size                      : 1 021 MiB (72%)
Writing library                  : XviD 1.1.2 (UTC 2006-11-01)

Audio
ID                               : 1
Format                           : AC-3
Format/Info                      : Audio Coding 3
Codec ID                         : 2000
Duration                         : 1h 58mn
Bit rate mode                    : Constant
Bit rate                         : 448 Kbps
Channel(s)                       : 6 channels
Channel positions                : Front: L C R, Surround: L R, LFE
Sampling rate                    : 48.0 KHz
Stream size                      : 380 MiB (27%)
Alignment                        : Split accross interleaves
Interleave, duration             : 42 ms (1.00 video frame)
Interleave, preload duration     : 500 ms

Enjoy...

TBS.